<svg aria-hidden="true" style="position: absolute; width: 0; height: 0; overflow: hidden;" version="1.1" xmlns="http://www.w3.org/2000/svg" xmlns:xlink="http://www.w3.org/1999/xlink">
<defs>
<symbol id="icon-instagram" viewBox="0 0 32 32">
<path fill="#fff" style="fill: var(--color1, #fff)" d="M31.969 9.408c-0.075-1.7-0.35-2.869-0.744-3.882-0.406-1.075-1.031-2.038-1.85-2.838-0.8-0.813-1.769-1.444-2.832-1.844-1.019-0.394-2.182-0.669-3.882-0.744-1.713-0.081-2.257-0.1-6.601-0.1s-4.888 0.019-6.595 0.094c-1.7 0.075-2.869 0.35-3.882 0.744-1.075 0.406-2.038 1.031-2.838 1.85-0.813 0.8-1.444 1.769-1.844 2.832-0.394 1.019-0.669 2.182-0.744 3.882-0.081 1.713-0.1 2.257-0.1 6.601s0.019 4.888 0.094 6.595c0.075 1.7 0.35 2.869 0.744 3.882 0.406 1.075 1.038 2.038 1.85 2.838 0.8 0.813 1.769 1.444 2.832 1.844 1.019 0.394 2.182 0.669 3.882 0.744 1.706 0.075 2.25 0.094 6.595 0.094s4.888-0.019 6.595-0.094c1.7-0.075 2.869-0.35 3.882-0.744 2.151-0.831 3.851-2.532 4.682-4.682 0.394-1.019 0.669-2.182 0.744-3.882 0.075-1.707 0.094-2.25 0.094-6.595s-0.006-4.888-0.081-6.595zM29.087 22.473c-0.069 1.563-0.331 2.407-0.55 2.969-0.538 1.394-1.644 2.5-3.038 3.038-0.563 0.219-1.413 0.481-2.969 0.55-1.688 0.075-2.194 0.094-6.464 0.094s-4.782-0.019-6.464-0.094c-1.563-0.069-2.407-0.331-2.969-0.55-0.694-0.256-1.325-0.663-1.838-1.194-0.531-0.519-0.938-1.144-1.194-1.838-0.219-0.563-0.481-1.413-0.55-2.969-0.075-1.688-0.094-2.194-0.094-6.464s0.019-4.782 0.094-6.464c0.069-1.563 0.331-2.407 0.55-2.969 0.256-0.694 0.663-1.325 1.2-1.838 0.519-0.531 1.144-0.938 1.838-1.194 0.563-0.219 1.413-0.481 2.969-0.55 1.688-0.075 2.194-0.094 6.464-0.094 4.276 0 4.782 0.019 6.464 0.094 1.563 0.069 2.407 0.331 2.969 0.55 0.694 0.256 1.325 0.662 1.838 1.194 0.531 0.519 0.938 1.144 1.194 1.838 0.219 0.563 0.481 1.413 0.55 2.969 0.075 1.688 0.094 2.194 0.094 6.464s-0.019 4.77-0.094 6.458z"></path>
<path fill="#fff" style="fill: var(--color1, #fff)" d="M16.059 7.784c-4.538 0-8.22 3.682-8.22 8.22s3.682 8.22 8.22 8.22c4.539 0 8.22-3.682 8.22-8.22s-3.682-8.22-8.22-8.22zM16.059 21.337c-2.944 0-5.332-2.388-5.332-5.332s2.388-5.332 5.332-5.332c2.944 0 5.332 2.388 5.332 5.332s-2.388 5.332-5.332 5.332z"></path>
<path fill="#fff" style="fill: var(--color1, #fff)" d="M26.524 7.458c0 1.060-0.859 1.919-1.919 1.919s-1.919-0.859-1.919-1.919c0-1.060 0.859-1.919 1.919-1.919s1.919 0.859 1.919 1.919z"></path>
</symbol>
<symbol id="icon-telegram" viewBox="0 0 32 32">
<path fill="#fff" style="fill: var(--color1, #fff)" d="M12.556 20.242l-0.529 7.445c0.757 0 1.085-0.325 1.479-0.716l3.551-3.393 7.357 5.388c1.349 0.752 2.3 0.356 2.664-1.241l4.829-22.629 0.001-0.001c0.428-1.995-0.721-2.775-2.036-2.285l-28.387 10.868c-1.937 0.752-1.908 1.832-0.329 2.321l7.257 2.257 16.857-10.548c0.793-0.525 1.515-0.235 0.921 0.291l-13.636 12.244z"></path>
</symbol>
<symbol id="icon-youtube" viewBox="0 0 32 32">
<path fill="#fff" style="fill: var(--color1, #fff)" d="M30.366 8.5c-0.346-1.285-1.359-2.298-2.644-2.644-2.348-0.642-11.738-0.642-11.738-0.642s-9.39 0-11.738 0.618c-1.26 0.346-2.298 1.384-2.644 2.669-0.618 2.347-0.618 7.216-0.618 7.216s0 4.893 0.618 7.216c0.346 1.285 1.359 2.298 2.644 2.644 2.372 0.643 11.738 0.643 11.738 0.643s9.39 0 11.738-0.618c1.285-0.346 2.298-1.359 2.644-2.644 0.618-2.348 0.618-7.216 0.618-7.216s0.025-4.893-0.618-7.24zM12.994 20.213v-8.995l7.809 4.497-7.809 4.497z"></path>
</symbol>
<symbol id="icon-facebook" viewBox="0 0 32 32">
<path fill="#fff" style="fill: var(--color1, #fff)" d="M18 11v-4c0-1.104 0.896-2 2-2h2v-5h-4c-3.314 0-6 2.686-6 6v5h-4v5h4v16h6v-16h4l2-5h-6z"></path>
</symbol>
<symbol id="icon-info" viewBox="0 0 30 32">
<path d="M15.799 14.627c0-0.569-0.461-1.030-1.030-1.030s-1.030 0.461-1.030 1.030v8.243c0 0.569 0.461 1.030 1.030 1.030s1.030-0.461 1.030-1.030v-8.243z"></path>
<path d="M14.769 1.231c-8.157 0-14.769 6.612-14.769 14.769s6.612 14.769 14.769 14.769c8.157 0 14.769-6.612 14.769-14.769s-6.612-14.769-14.769-14.769zM2.061 16c0-7.019 5.69-12.708 12.708-12.708s12.708 5.69 12.708 12.708c0 7.019-5.69 12.708-12.708 12.708s-12.708-5.69-12.708-12.708z"></path>
<path d="M16.143 10.505c0 0.759-0.615 1.374-1.374 1.374s-1.374-0.615-1.374-1.374c0-0.759 0.615-1.374 1.374-1.374s1.374 0.615 1.374 1.374z"></path>
</symbol>
<symbol id="icon-clock_2" viewBox="0 0 12 32">
<path fill="#e8ddf3" style="fill: var(--color2, #e8ddf3)" d="M6 11.472c3.284 0 6-2.596 6-5.736s-2.716-5.736-6-5.736c-3.284 0-6 2.596-6 5.736s2.716 5.736 6 5.736zM6 32c3.284 0 6-2.596 6-5.736s-2.716-5.736-6-5.736c-3.284 0-6 2.596-6 5.736s2.716 5.736 6 5.736z"></path>
</symbol>
<symbol id="icon-blue" viewBox="0 0 32 32">
<path fill="#5b9aff" style="fill: var(--color3, #5b9aff)" d="M16 0c-8.823 0-16 7.177-16 16s7.177 16 16 16c8.823 0 16-7.177 16-16s-7.177-16-16-16zM24.109 12.609l-8.667 8.666c-0.26 0.26-0.601 0.391-0.943 0.391s-0.683-0.131-0.943-0.391l-4.333-4.333c-0.521-0.521-0.521-1.364 0-1.885s1.364-0.521 1.885 0l3.391 3.391 7.724-7.724c0.521-0.521 1.364-0.521 1.885 0s0.521 1.364 0 1.885z"></path>
</symbol>
<symbol id="icon-violet" viewBox="0 0 32 32">
<path fill="#8b57c2" style="fill: var(--color4, #8b57c2)" d="M16 0c-8.823 0-16 7.177-16 16s7.177 16 16 16c8.823 0 16-7.177 16-16s-7.177-16-16-16zM24.109 12.609l-8.667 8.666c-0.26 0.26-0.601 0.391-0.943 0.391s-0.683-0.131-0.943-0.391l-4.333-4.333c-0.522-0.521-0.522-1.364 0-1.885s1.364-0.521 1.885 0l3.391 3.391 7.724-7.724c0.521-0.522 1.364-0.522 1.885 0s0.521 1.364 0 1.885z"></path>
</symbol>
<symbol id="icon-orange" viewBox="0 0 32 32">
<path fill="#fea800" style="fill: var(--color5, #fea800)" d="M16 0c-8.823 0-16 7.177-16 16s7.177 16 16 16c8.823 0 16-7.177 16-16s-7.177-16-16-16zM24.109 12.609l-8.667 8.666c-0.26 0.26-0.601 0.391-0.943 0.391s-0.683-0.131-0.943-0.391l-4.333-4.333c-0.521-0.521-0.521-1.364 0-1.885s1.364-0.521 1.885 0l3.391 3.391 7.724-7.724c0.521-0.521 1.364-0.521 1.885 0s0.521 1.364 0 1.885z"></path>
</symbol>
<symbol id="icon-Group" viewBox="0 0 30 32">
<path d="M15.799 14.627c0-0.569-0.461-1.030-1.030-1.030s-1.030 0.461-1.030 1.030v8.243c0 0.569 0.461 1.030 1.030 1.030s1.030-0.461 1.030-1.030v-8.243z"></path>
<path d="M14.769 1.231c-8.157 0-14.769 6.612-14.769 14.769s6.612 14.769 14.769 14.769c8.157 0 14.769-6.612 14.769-14.769s-6.612-14.769-14.769-14.769zM2.061 16c0-7.019 5.69-12.708 12.708-12.708s12.708 5.69 12.708 12.708c0 7.019-5.69 12.708-12.708 12.708s-12.708-5.69-12.708-12.708z"></path>
<path d="M16.143 10.505c0 0.759-0.615 1.374-1.374 1.374s-1.374-0.615-1.374-1.374c0-0.759 0.615-1.374 1.374-1.374s1.374 0.615 1.374 1.374z"></path>
</symbol>
<symbol id="icon-untitled" viewBox="0 0 13 32">
<path fill="#fff" style="fill: var(--color1, #fff)" d="M6.964 11.707c2.936 0 5.365-2.428 5.365-5.365s-2.428-5.365-5.365-5.365c-2.936 0-5.365 2.428-5.365 5.365s2.428 5.365 5.365 5.365zM6.964 30.907c2.936 0 5.365-2.428 5.365-5.365s-2.428-5.365-5.365-5.365c-2.936 0-5.365 2.428-5.365 5.365s2.428 5.365 5.365 5.365z"></path>
</symbol>
<symbol id="icon-Vector-59" viewBox="0 0 30 32">
<path fill="none" stroke="#fff" style="stroke: var(--color1, #fff)" stroke-linejoin="miter" stroke-linecap="butt" stroke-miterlimit="4" stroke-width="4.8" d="M2.016 29.213l25.18-26.013M27.196 3.2l-25.597 0.416M27.196 3.2l0.416 25.597"></path>
</symbol>
<symbol id="icon-Group-297" viewBox="0 0 52 32">
<path fill="#8b57c2" style="fill: var(--color4, #8b57c2)" d="M3.368 4.762h26.3c1.86 0 3.368 1.508 3.368 3.368v16.583c0 1.86-1.508 3.368-3.368 3.368h-26.3c-1.86 0-3.368-1.508-3.368-3.368v-16.583c0-1.86 1.508-3.368 3.368-3.368z"></path>
<path fill="#8b57c2" style="fill: var(--color4, #8b57c2)" d="M35.865 17.597c-0.637-0.654-0.637-1.697 0-2.351l9.082-9.322c1.054-1.082 2.891-0.336 2.891 1.175v18.643c0 1.511-1.836 2.258-2.891 1.175l-9.082-9.322z"></path>
</symbol>
<symbol id="icon-Frame-334" viewBox="0 0 32 32">
<path fill="#8b57c2" style="fill: var(--color4, #8b57c2)" d="M3 8.827h15.615c1.105 0 2 0.895 2 2v9.846c0 1.105-0.895 2-2 2h-15.615c-1.105 0-2-0.895-2-2v-9.846c0-1.105 0.895-2 2-2z"></path>
<path fill="#8b57c2" style="fill: var(--color4, #8b57c2)" d="M22.295 16.448c-0.378-0.388-0.378-1.007 0-1.396l5.392-5.535c0.626-0.643 1.716-0.199 1.716 0.698v11.069c0 0.897-1.090 1.34-1.716 0.698l-5.392-5.535z"></path>
</symbol>
<symbol id="icon-Subtract" viewBox="0 0 32 32">
<path fill="#8b57c2" style="fill: var(--color4, #8b57c2)" d="M16 0c8.837 0 16 7.163 16 16s-7.163 16-16 16c-8.837 0-16-7.163-16-16s7.163-16 16-16zM12.667 21.773l10-5.773-10-5.773v11.547z"></path>
</symbol>
<symbol id="icon-Frame-333" viewBox="0 0 32 32">
<path fill="#8b57c2" style="fill: var(--color4, #8b57c2)" d="M16 4c6.627 0 12 5.373 12 12s-5.373 12-12 12c-6.627 0-12-5.373-12-12s5.373-12 12-12zM13.5 20.33l7.5-4.33-7.5-4.33v8.66z"></path>
</symbol>
<symbol id="calendar" viewBox="0 0 32 32">
<path fill="#fff" style="fill: var(--color1, #fff)" d="M25.845 4.104h-1.231v-2.644h-2.462v2.644h-12.308v-2.644h-2.462v2.644h-1.231c-1.354 0-2.462 1.19-2.462 2.644v21.151c0 1.454 1.108 2.644 2.462 2.644h19.692c1.354 0 2.462-1.19 2.462-2.644v-21.151c0-1.454-1.108-2.644-2.462-2.644zM25.845 27.899h-19.692v-17.185h19.692v17.185z"></path>
</symbol>
<symbol id="flag" viewBox="0 0 30 32">
<path fill="#fff" style="fill: var(--color1, #fff)" d="M11.26 18.268h0.548c4.78 0.225 7.966 2.648 10.655 2.927 0.163 0.011 0.325 0.011 0.488 0 2.928 0 5.537-2.638 5.537-3.485v-14.904c0-0.236-0.229-0.311-0.637-0.311-0.996 0-3.167 0.558-5.049 0.558-0.219 0-0.428 0-0.647 0-2.489-0.193-5.775-2.916-9.848-2.916-2.014 0.015-3.988 0.611-5.716 1.726-0.177-0.203-0.407-0.344-0.66-0.404s-0.517-0.036-0.757 0.068c-0.24 0.104-0.445 0.284-0.589 0.516s-0.218 0.505-0.215 0.784v26.248h-1.434c-0.343 0-0.673 0.147-0.915 0.408s-0.379 0.616-0.379 0.986c0 0.37 0.136 0.724 0.379 0.986s0.572 0.408 0.915 0.408h5.347c0.343 0 0.673-0.147 0.915-0.408s0.379-0.616 0.379-0.986c0-0.37-0.136-0.724-0.379-0.986s-0.572-0.408-0.915-0.408h-1.324v-10.261c1.413-0.341 2.854-0.524 4.302-0.547zM6.958 5.069c1.463-1.423 3.376-2.19 5.347-2.144 1.861 0.135 3.68 0.655 5.357 1.533 1.358 0.7 2.809 1.167 4.302 1.383h0.836c1.037-0.021 2.072-0.117 3.097-0.29v11.505c-0.81 0.835-1.868 1.336-2.987 1.415h-0.239c-1.026-0.197-2.028-0.517-2.987-0.954-2.494-1.119-5.141-1.789-7.837-1.984h-0.657c-1.445 0.014-2.885 0.176-4.302 0.482l0.070-10.947z"></path>
</symbol>
<symbol id="globus" viewBox="0 0 32 32">
<path fill="#fff" style="fill: var(--color1, #fff)" d="M27.215 4.784c-6.198-6.198-16.23-6.199-22.429 0s-6.199 16.23 0 22.429c6.198 6.198 16.23 6.199 22.429 0s6.199-16.23 0-22.429zM26.552 24.952c-0.741-0.663-1.534-1.249-2.369-1.754 0.552-1.908 0.879-4.007 0.957-6.189h4.663c-0.211 2.941-1.341 5.7-3.25 7.943zM2.199 17.009h4.663c0.077 2.182 0.404 4.281 0.957 6.189-0.835 0.505-1.628 1.092-2.369 1.754-1.909-2.243-3.039-5.002-3.25-7.943zM5.449 7.045c0.741 0.663 1.534 1.249 2.369 1.754-0.552 1.908-0.879 4.007-0.957 6.189h-4.663c0.211-2.941 1.341-5.7 3.25-7.943zM14.99 9.008c-1.648-0.118-3.238-0.524-4.711-1.194 0.857-2.207 2.437-4.853 4.711-5.509v6.703zM14.99 11.033v3.955h-6.106c0.070-1.846 0.332-3.618 0.766-5.24 1.674 0.732 3.475 1.169 5.34 1.285zM14.99 17.009v3.955c-1.865 0.116-3.666 0.553-5.34 1.285-0.435-1.622-0.696-3.394-0.766-5.24h6.106zM14.99 22.989v6.703c-2.274-0.656-3.854-3.302-4.711-5.509 1.473-0.67 3.063-1.076 4.711-1.194zM17.011 22.989c1.648 0.118 3.238 0.524 4.711 1.194-0.857 2.207-2.437 4.853-4.711 5.509v-6.703zM17.011 20.964v-3.955h6.106c-0.070 1.846-0.332 3.618-0.767 5.24-1.674-0.732-3.475-1.169-5.34-1.285zM17.011 14.988v-3.955c1.865-0.116 3.666-0.553 5.34-1.285 0.435 1.622 0.697 3.394 0.767 5.24h-6.106zM17.011 9.008v-6.703c2.274 0.656 3.854 3.302 4.711 5.509-1.473 0.67-3.063 1.076-4.711 1.194zM21.551 3.315c1.294 0.567 2.501 1.335 3.583 2.288-0.515 0.454-1.058 0.866-1.626 1.234-0.504-1.248-1.148-2.46-1.957-3.522zM8.494 6.837c-0.567-0.368-1.111-0.78-1.626-1.234 1.082-0.953 2.289-1.721 3.583-2.288-0.809 1.062-1.453 2.274-1.957 3.522zM8.494 25.161c0.504 1.248 1.148 2.46 1.957 3.522-1.294-0.566-2.501-1.335-3.583-2.288 0.515-0.454 1.058-0.866 1.626-1.234zM23.508 25.161c0.567 0.368 1.111 0.78 1.626 1.234-1.082 0.953-2.289 1.721-3.583 2.288 0.809-1.061 1.453-2.274 1.957-3.522zM25.14 14.988c-0.077-2.182-0.405-4.281-0.957-6.189 0.836-0.505 1.628-1.092 2.369-1.754 1.91 2.243 3.040 5.002 3.25 7.943h-4.663z"></path>
</symbol>
<symbol id="icon-logo" viewBox="0 0 77 32">
<path fill="#ff3900" style="fill: var(--color6, #ff3900)" d="M68.762 31.385h-22.162c-3.771 0-6.857-3.075-6.857-6.833s3.086-6.833 6.857-6.833h22.162c3.771 0 6.857 3.075 6.857 6.833s-3.086 6.833-6.857 6.833z"></path>
<path fill="#fff" style="fill: var(--color1, #fff)" d="M7.139 0c1.976 0 3.718 0.722 4.988 1.93v3.723c-0.607-2.183-2.544-3.705-4.988-3.705-2.954 0-5.185 2.223-5.185 5.167s2.23 5.167 5.185 5.167c2.25 0 4.070-1.287 4.814-3.197h-6.77v-1.95h6.947v5.167c-1.272 1.208-3.014 1.93-4.988 1.93-4.070 0-7.141-3.061-7.141-7.117-0.002-4.054 3.070-7.115 7.139-7.115z"></path>
<path fill="#fff" style="fill: var(--color1, #fff)" d="M13.889 0.293h10.566v1.95h-8.609v3.899h8.609v1.95h-8.609v3.899h8.609v1.95h-10.566v-13.648z"></path>
<path fill="#fff" style="fill: var(--color1, #fff)" d="M26.216 0.293h4.109l6.143 13.648v-13.648h1.957v13.648h-4.11l-6.143-13.648v13.648h-1.956v-13.648z"></path>
<path fill="#fff" style="fill: var(--color1, #fff)" d="M39.794 11.991h4.988v-9.748h-4.988v-1.95h11.935v1.95h-4.988v9.748h4.988v1.95h-11.935v-1.95z"></path>
<path fill="#fff" style="fill: var(--color1, #fff)" d="M52.706 7.546v-7.253h1.957v7.293c0 2.768 2.074 4.797 4.853 4.797 2.738 0 4.931-2.027 4.931-4.797v-7.293h1.956v7.253c0 3.842-3.052 6.786-6.887 6.786s-6.81-2.964-6.81-6.786z"></path>
<path fill="#fff" style="fill: var(--color1, #fff)" d="M67.285 12.986v-3.569c0.196 1.677 1.897 2.788 3.502 2.788 1.155 0 2.367-0.643 2.367-1.93 0-2.749-5.869-1.989-5.869-6.258 0-2.476 1.937-3.939 4.304-3.939 1.095 0 2.173 0.332 3.052 0.995v3.587c-0.176-1.58-1.468-2.632-3.032-2.632-1.155 0-2.367 0.546-2.367 1.872 0 2.867 5.869 2.32 5.869 6.434 0 2.456-1.996 3.822-4.304 3.822-1.254 0-2.524-0.391-3.522-1.171z"></path>
<path fill="#fff" style="fill: var(--color1, #fff)" d="M47.791 25.881c0-0.244-0.093-0.433-0.28-0.567-0.183-0.137-0.505-0.254-0.966-0.352-0.458-0.098-0.822-0.215-1.093-0.352-0.268-0.137-0.468-0.3-0.598-0.489-0.127-0.189-0.191-0.414-0.191-0.674 0-0.433 0.183-0.8 0.549-1.1 0.369-0.3 0.84-0.45 1.412-0.45 0.601 0 1.089 0.155 1.461 0.464 0.376 0.309 0.564 0.705 0.564 1.188h-0.912c0-0.248-0.106-0.461-0.319-0.64-0.209-0.179-0.474-0.269-0.795-0.269-0.33 0-0.589 0.072-0.775 0.215s-0.28 0.331-0.28 0.562c0 0.218 0.087 0.383 0.26 0.494s0.486 0.217 0.937 0.318c0.454 0.101 0.822 0.222 1.104 0.362s0.489 0.31 0.623 0.508c0.137 0.195 0.206 0.435 0.206 0.718 0 0.472-0.189 0.852-0.569 1.139-0.379 0.283-0.871 0.425-1.476 0.425-0.425 0-0.801-0.075-1.128-0.225s-0.584-0.358-0.77-0.626c-0.183-0.27-0.274-0.562-0.274-0.875h0.907c0.016 0.303 0.137 0.544 0.363 0.723 0.229 0.176 0.529 0.264 0.902 0.264 0.343 0 0.618-0.068 0.824-0.205 0.209-0.14 0.314-0.326 0.314-0.557zM54.363 24.698c0 0.805-0.185 1.453-0.554 1.945s-0.87 0.738-1.501 0.738c-0.644 0-1.151-0.204-1.52-0.611v2.546h-0.908v-7.321h0.829l0.044 0.586c0.369-0.456 0.882-0.684 1.54-0.684 0.638 0 1.141 0.24 1.511 0.718 0.373 0.479 0.559 1.145 0.559 1.999v0.083zM53.456 24.595c0-0.596-0.127-1.067-0.383-1.412s-0.605-0.518-1.049-0.518c-0.549 0-0.961 0.243-1.236 0.728v2.527c0.271 0.482 0.686 0.723 1.245 0.723 0.435 0 0.78-0.171 1.035-0.513 0.258-0.345 0.387-0.857 0.387-1.535zM58.796 27.283c-0.052-0.104-0.094-0.29-0.127-0.557-0.422 0.437-0.925 0.655-1.51 0.655-0.523 0-0.953-0.147-1.29-0.44-0.333-0.296-0.5-0.671-0.5-1.124 0-0.551 0.209-0.977 0.628-1.28 0.422-0.306 1.014-0.459 1.775-0.459h0.883v-0.416c0-0.316-0.095-0.567-0.284-0.753-0.19-0.189-0.469-0.284-0.839-0.284-0.324 0-0.595 0.081-0.814 0.244s-0.329 0.36-0.329 0.591h-0.912c0-0.264 0.093-0.518 0.28-0.762 0.19-0.248 0.445-0.443 0.765-0.586 0.324-0.143 0.679-0.215 1.064-0.215 0.611 0 1.090 0.153 1.437 0.459 0.347 0.303 0.527 0.722 0.54 1.256v2.434c0 0.485 0.062 0.872 0.186 1.158v0.078h-0.952zM57.291 26.594c0.284 0 0.554-0.073 0.809-0.22s0.44-0.337 0.554-0.572v-1.085h-0.711c-1.111 0-1.667 0.324-1.667 0.973 0 0.283 0.095 0.505 0.285 0.665s0.433 0.24 0.731 0.24zM63.112 26.643c0.323 0 0.606-0.098 0.848-0.293s0.376-0.44 0.402-0.733h0.858c-0.016 0.303-0.121 0.591-0.314 0.865s-0.451 0.492-0.775 0.655c-0.32 0.163-0.66 0.244-1.020 0.244-0.723 0-1.298-0.239-1.727-0.718-0.425-0.482-0.637-1.14-0.637-1.974v-0.152c0-0.515 0.095-0.973 0.284-1.373s0.461-0.712 0.814-0.934c0.356-0.222 0.776-0.332 1.26-0.332 0.595 0 1.089 0.178 1.481 0.533 0.395 0.355 0.606 0.816 0.632 1.383h-0.858c-0.026-0.342-0.157-0.622-0.392-0.841-0.232-0.222-0.52-0.332-0.863-0.332-0.461 0-0.819 0.166-1.074 0.499-0.252 0.329-0.378 0.806-0.378 1.432v0.171c0 0.609 0.126 1.078 0.378 1.408s0.611 0.494 1.079 0.494zM68.443 27.381c-0.72 0-1.305-0.235-1.756-0.704-0.451-0.472-0.676-1.103-0.676-1.891v-0.166c0-0.524 0.1-0.992 0.299-1.403 0.203-0.414 0.484-0.736 0.843-0.968 0.363-0.235 0.756-0.352 1.177-0.352 0.69 0 1.226 0.226 1.609 0.679s0.574 1.101 0.574 1.945v0.376h-3.595c0.013 0.521 0.165 0.943 0.456 1.266 0.294 0.319 0.667 0.479 1.118 0.479 0.32 0 0.592-0.065 0.814-0.195s0.417-0.303 0.584-0.518l0.554 0.43c-0.445 0.681-1.112 1.022-2.001 1.022zM68.33 22.64c-0.366 0-0.673 0.134-0.922 0.401-0.248 0.264-0.402 0.635-0.461 1.114h2.658v-0.068c-0.026-0.459-0.15-0.815-0.373-1.065-0.222-0.254-0.523-0.381-0.902-0.381z"></path>
<path fill="#fecb00" style="fill: var(--color7, #fecb00)" d="M42.121 23.134c-0.059 0.001-0.117 0.005-0.176 0.005-0.181-0.001-0.361-0.008-0.541-0.019s-0.36-0.028-0.539-0.049c-0.179-0.021-0.357-0.046-0.535-0.075s-0.356-0.063-0.532-0.099-0.353-0.077-0.529-0.121c-0.176-0.043-0.351-0.090-0.525-0.139s-0.348-0.101-0.521-0.155c-0.172-0.054-0.344-0.11-0.515-0.167-0.342-0.115-0.683-0.238-1.024-0.363s-0.682-0.254-1.023-0.383c-0.341-0.129-0.682-0.257-1.024-0.382s-0.684-0.245-1.028-0.358c-0.172-0.057-0.344-0.111-0.517-0.164s-0.346-0.102-0.519-0.149c-0.173-0.047-0.347-0.092-0.521-0.133s-0.35-0.080-0.525-0.114c-0.175-0.034-0.351-0.065-0.528-0.092s-0.353-0.049-0.531-0.067c-0.178-0.018-0.356-0.031-0.535-0.040s-0.359-0.012-0.54-0.010c-0.186 0.002-0.372 0.011-0.557 0.025s-0.371 0.034-0.555 0.060c-0.184 0.026-0.368 0.058-0.55 0.095s-0.363 0.081-0.542 0.129c-0.179 0.049-0.357 0.103-0.533 0.163-0.038 0.013-0.076 0.030-0.114 0.043 0.71 2.258 2.621 4.595 6.035 7.463 1.226 1.030 2.297 1.872 2.38 1.872 0.404 0 3.543-2.635 5.137-4.312 0.8-0.842 1.475-1.665 2.027-2.463v0z"></path>
<path fill="#0068c2" style="fill: var(--color8, #0068c2)" d="M30.408 14.031c-0.804 0.007-1.589 0.185-2.179 0.549-1.523 0.942-2.037 1.962-2.013 3.999 0.008 0.665 0.114 1.326 0.324 1.994 0.038-0.014 0.075-0.030 0.114-0.043 0.176-0.060 0.354-0.114 0.533-0.163s0.36-0.092 0.542-0.129 0.366-0.069 0.55-0.095c0.184-0.026 0.37-0.046 0.555-0.060s0.371-0.023 0.557-0.025c0.181-0.002 0.361 0.001 0.54 0.010s0.358 0.022 0.535 0.040 0.355 0.041 0.531 0.067c0.176 0.027 0.352 0.058 0.528 0.092s0.35 0.073 0.525 0.114c0.174 0.041 0.348 0.086 0.521 0.133s0.346 0.097 0.519 0.149c0.173 0.052 0.345 0.107 0.517 0.164 0.344 0.113 0.686 0.234 1.028 0.358s0.683 0.253 1.024 0.382c0.341 0.129 0.682 0.257 1.023 0.383s0.682 0.248 1.024 0.363c0.171 0.058 0.343 0.113 0.516 0.167s0.347 0.105 0.521 0.155c0.174 0.049 0.349 0.096 0.525 0.139s0.352 0.084 0.529 0.121c0.177 0.037 0.354 0.070 0.532 0.099s0.356 0.054 0.535 0.075c0.179 0.021 0.359 0.037 0.539 0.049s0.36 0.018 0.541 0.019c0.059 0 0.117-0.004 0.176-0.005 2.271-3.28 2.434-6.129 0.377-8.068-0.699-0.66-1.248-0.874-2.498-0.976-1.952-0.159-3.214 0.401-4.168 1.852-0.76 1.156-1.004 1.25-1.25 0.487-0.095-0.295-0.575-0.915-1.066-1.378-0.713-0.673-1.931-1.028-3.107-1.018v0z"></path>
<path fill="#fff" style="fill: var(--color1, #fff)" opacity="0.217903" d="M37.149 27.651c3.838-4.015 5.288-6.506 5.293-9.091 0.003-2.052-0.635-3.202-2.184-3.926l-1.25-0.585 1.303 0.143c2.397 0.263 3.917 2.585 3.468 5.298-0.339 2.046-1.648 4.035-4.508 6.851-3.313 3.263-4.959 4.278-2.122 1.31zM33.393 16.712c-0.624-1.114-1.148-1.626-2.092-2.048-1.225-0.547-1.235-0.563-0.363-0.568 1.672-0.010 4.202 2.223 3.963 3.498-0.162 0.869-0.704 0.552-1.508-0.882z"></path>
<path fill="#fff" style="fill: var(--color1, #fff)" opacity="0.367623" d="M29.464 15.385c-0.367-0.002-0.758 0.226-1.234 0.695-1.328 1.179-0.53 5.863 0.063 2.886 0.11-0.491 0.837-1.174 1.308-1.516 1.089-0.793 1.276-1.076 0.702-1.641-0.283-0.278-0.553-0.42-0.838-0.422zM38.348 15.45c-0.52-0.003-1.069 0.384-1.441 1.090-0.585 1.114-0.255 1.17 0.602 1.17 0.402 0 0.792-0.323 1.253-0.717 0.778-0.665 0.803-0.752 0.349-1.207-0.226-0.226-0.491-0.335-0.763-0.337z"></path>
</symbol>
</defs>
</svg>
